<svg data-v-423bf9ae="" xmlns="http://www.w3.org/2000/svg" viewBox="0 0 445 90" class="iconLeft"><!----><!----><!----><g data-v-423bf9ae="" id="459c6797-1c22-4d23-ac49-a85816998a39" fill="black" transform="matrix(6.097560881055492,0,0,6.097560881055492,140.517675313736,-8.292683827505925)"><path d="M2.07 13.50L2.07 9.76L4.02 9.76C4.90 9.76 5.78 9.67 6.31 9.46C7.39 9.06 7.99 8.09 7.99 6.75C7.99 5.40 7.38 4.24 6.06 3.98C5.68 3.91 4.80 3.82 4.07 3.82L1.19 3.82L1.19 13.50ZM2.07 8.90L2.07 4.68L4.07 4.68C4.51 4.68 5.19 4.70 5.54 4.76C6.47 4.93 7.01 5.74 7.01 6.80C7.01 7.69 6.58 8.43 5.95 8.67C5.52 8.83 4.73 8.90 4.10 8.90ZM15.47 13.48L15.39 12.78C15.26 12.81 15.12 12.82 14.95 12.82C14.73 12.82 14.56 12.74 14.45 12.53C14.35 12.36 14.34 12.05 14.34 11.69L14.34 9.30C14.34 8.72 14.34 8.22 14.20 7.76C13.92 6.78 13.12 6.33 11.77 6.33C9.81 6.33 8.83 7.22 8.83 8.83L9.65 8.88C9.70 7.29 10.75 7.13 11.72 7.13C12.78 7.13 13.16 7.60 13.34 7.98C13.44 8.20 13.51 8.71 13.51 9.20L13.51 9.49L12.68 9.49C11.00 9.49 10.05 9.69 9.46 10.01C8.88 10.33 8.55 10.88 8.55 11.62C8.55 12.84 9.44 13.66 11.05 13.66C12.07 13.66 13.12 13.27 13.55 12.36C13.61 13.06 13.85 13.58 14.76 13.58C14.97 13.58 15.26 13.55 15.47 13.48ZM13.51 10.18L13.51 10.89C13.51 11.17 13.44 11.61 13.27 11.91C13.02 12.35 12.33 12.92 11.17 12.92C10.29 12.92 9.39 12.57 9.39 11.56C9.39 11.00 9.73 10.63 10.22 10.46C10.74 10.28 11.56 10.18 12.70 10.18ZM17.51 13.50L17.51 9.95C17.51 9.14 17.60 8.60 17.85 8.15C18.12 7.67 18.66 7.13 19.50 7.13C19.74 7.13 19.99 7.17 20.20 7.22L20.37 6.43C20.13 6.36 19.82 6.30 19.57 6.30C18.41 6.30 17.70 7.11 17.51 7.94L17.51 6.51L16.67 6.51L16.67 13.50ZM22.32 13.50L22.32 10.74L23.42 9.69L26.18 13.50L27.20 13.50L24.02 9.09L26.73 6.51L25.59 6.51L22.32 9.72L22.32 3.82L21.48 3.82L21.48 13.50ZM29.22 13.50L29.22 12.05L28.13 12.05L28.13 13.50ZM31.91 13.50L31.91 9.83C31.91 9.17 31.99 8.60 32.27 8.15C32.55 7.67 33.25 7.14 34.12 7.14C34.85 7.14 35.17 7.34 35.46 7.64C35.74 7.92 35.92 8.53 35.92 9.46L35.92 13.50L36.78 13.50L36.78 9.74C36.78 9.06 36.90 8.55 37.17 8.11C37.45 7.64 38.11 7.14 38.95 7.14C39.66 7.14 40.04 7.35 40.32 7.67C40.60 7.98 40.77 8.58 40.77 9.51L40.77 13.50L41.62 13.50L41.62 9.37C41.62 8.32 41.45 7.62 41.16 7.21C40.75 6.65 40.12 6.34 39.19 6.34C37.84 6.34 36.93 7.13 36.64 8.02C36.37 6.87 35.60 6.34 34.40 6.34C33.19 6.34 32.17 7.04 31.91 7.91L31.91 6.51L31.07 6.51L31.07 13.50ZM49.85 11.38L49.03 11.20C48.78 12.15 47.94 12.88 46.68 12.88C45.64 12.88 44.16 12.32 44.14 10.19L49.88 10.19C49.88 7.62 48.66 6.33 46.61 6.33C44.74 6.33 43.25 7.71 43.25 9.97C43.25 12.19 44.48 13.66 46.65 13.66C48.36 13.66 49.52 12.71 49.85 11.38ZM44.14 9.51C44.28 7.91 45.35 7.11 46.59 7.11C48.26 7.11 48.89 8.19 48.99 9.51Z"></path></g><!----><g data-v-423bf9ae="" id="6c21ff64-5bbe-4634-afaf-122382151800" transform="matrix(4.880958550468914,0,0,4.880958550468914,-14.18047082506152,-32.31678141737257)" stroke="none" fill="black"><path d="M28.59 10.781h-2.242a.497.497 0 00-.333.133c-.716-1.143-1.457-2.058-2.032-2.633-2-2-14-2-16 0-.573.573-1.309 1.482-2.022 2.617a.492.492 0 00-.309-.117H3.41c-.275 0-.5.225-.5.5v1.008c0 .275.221.542.491.594l1.359.259c-1.174 2.619-1.866 5.877-.778 9.14v1.938c0 .553.14 1 .313 1h2.562c.173 0 .313-.447.313-1v-1.584c2.298.219 5.551.459 8.812.459 3.232 0 6.521-.235 8.814-.453v1.578c0 .553.141 1 .312 1h2.562c.172 0 .312-.447.312-1l-.002-1.938c1.087-3.261.397-6.516-.775-9.134l1.392-.265a.629.629 0 00.491-.594v-1.008a.498.498 0 00-.498-.5zM7.107 18.906a1.812 1.812 0 110-3.625 1.812 1.812 0 010 3.625zm-1.524-5.19c.96-2.197 2.296-3.917 3.106-4.728.585-.585 3.34-1.207 7.293-1.207 3.953 0 6.708.622 7.293 1.207.811.811 2.146 2.53 3.106 4.728-2.133.236-6.286-.31-10.399-.31s-8.266.546-10.399.31zm19.274 5.19a1.812 1.812 0 110-3.625 1.812 1.812 0 010 3.625z"></path></g><!----></svg>